<svg xmlns="http://www.w3.org/2000/svg" width="116" height="27" fill="none"><path fill="#e81c1c" d="m9-1 1.2 2.2c.3.4.3 1 0 1.4L2.9 15.5l3.4 6.1c.6.9 1.6 1.5 2.7 1.5s2.1-.6 2.6-1.5l3.5-6.1-.9-1.7-4 6.9c-.2.5-.7.8-1.2.8s-1-.3-1.3-.8l-3-5.2 6.9-12 1.2 2.2c.3.4.3 1 0 1.4L8 15.5l1 1.6 5.2-9 3.4 5.9c.5.9.5 2.1 0 3l-3.5 6c-.5.9-2.2 3-5.1 3-3 0-4.6-2.1-5.2-3L.4 17c-.5-.9-.5-2.1 0-3L9-1"/><path fill="#fff" d="M36.5 10.4c-2.8 0-5 2-5 5.1 0 3.1 1.9 5 5 5 1.2 0 2.5.6 2.5 2s-1.1 2.2-2.5 2.2-2.6-.9-2.6-2.2h-2.4c0 2.7 2.1 4.5 5 4.5s5-1.7 5-4.5c0-1.3-.4-2.5-2.1-3.3 1.7-.7 2.1-2.5 2.1-3.7 0-3.1-2.2-5.1-5-5.1Zm0 8.1c-1.4 0-2.6-1.3-2.6-3 0-1.8 1.2-3 2.6-3 1.4 0 2.6 1.3 2.6 3s-1.2 3-2.6 3Zm59.8-2c.3 1.2 1.4 2.3 3.1 2.3.9 0 2.1-.5 2.7-1.1l1.5 1.6c-1 1.1-2.7 1.6-4.2 1.6-3.1 0-5.4-2.1-5.4-5.3 0-3 2.3-5.2 5.2-5.2 3 0 5.5 2.1 5.2 6.1h-8.1Zm5.8-1.8c-.3-1.2-1.5-2.3-2.9-2.3-1.3.1-2.5 1-2.9 2.3h5.8ZM85 16.5c.3 1.2 1.3 2.3 3.1 2.3.9 0 2.1-.5 2.6-1.1l1.6 1.6c-1 1.1-2.8 1.6-4.3 1.6-3.1 0-5.3-2.1-5.3-5.3 0-3 2.3-5.2 5.2-5.2 3 0 5.5 2.1 5.2 6.1H85Zm5.8-1.8c-.3-1.2-1.5-2.3-2.9-2.3-1.4.1-2.5 1-2.9 2.3h5.8Zm-42.2-4.3c-1.1 0-2.2.3-3.1 1.5V6.2h-2.4v14.4h2.4v-5c0-1.5 1-2.8 2.5-2.8 1.3 0 2.2.8 2.2 2.6v5.2h2.5v-5.4c0-2.9-1.3-4.8-4.1-4.8Zm28.1 0c-1.1 0-2.4.5-3.2 1.6l-.1-1.4h-2.3v14.5l2.4-.3v-5.3c.7 1.1 2.2 1.4 3.3 1.4 3.1 0 5-2.4 5-5.3s-2-5.2-5.1-5.2Zm-.2 8.4c-1.6 0-2.8-1.6-2.8-3.1 0-1.6 1.1-3.3 2.8-3.3 1.8 0 2.8 1.7 2.8 3.3 0 1.5-1.1 3.1-2.8 3.1Zm33.8 2.1c1.2 0 2.5-.5 3.3-1.6v1.3h2.4V6.2h-2.4v5.6c-.7-1.1-2.3-1.4-3.3-1.4-3.2 0-5 2.4-5 5.3s2 5.2 5 5.2Zm.2-8.4c1.7 0 2.8 1.6 2.8 3.1 0 1.6-1 3.3-2.8 3.3-1.7 0-2.8-1.7-2.8-3.3 0-1.5 1.2-3.1 2.8-3.1ZM58.6 19c-.3 0-.5-.1-.7-.3-.1-.2-.2-.6-.2-1v-4.9h2l.2-2.2h-2.2V7.9l-2.4.3v2.4h-1.9v2.2h1.9v5c0 1 .2 1.8.7 2.3.5.5 1.2.8 2.1.8.4 0 .8-.1 1.3-.2.4-.1.7-.3 1.1-.5l-.9-1.6c-.3.2-.6.3-1 .4Zm10.1-3.7c-1-.6-2.2-.7-3.3-.8-.7 0-1.7-.2-1.7-1.1 0-.6.6-1 1.8-1 .9 0 1.8.3 2.5.9l1.3-1.6c-1.1-1-2.3-1.3-3.9-1.3-1.8 0-4.2.8-4.2 3.1 0 1 .5 1.9 1.3 2.4 1 .5 2.2.6 3.2.7.7.1 1.8.3 1.7 1.3-.2.6-1 .8-1.6.9-.6 0-1.2-.1-1.8-.2-.7-.2-1.2-.5-1.8-.9L61 19.3l.1.2c1.7 1.3 3.9 1.7 5.9 1.3 1.5-.4 2.8-1.5 2.8-3.2 0-.9-.3-1.8-1.1-2.3Zm-41.1 5.3h2.5v-10h-2.5v10Zm-.2-13.2c0-.3.2-.7.4-1 .3-.2.7-.4 1-.4.8 0 1.5.7 1.5 1.4 0 .8-.7 1.5-1.5 1.5-.3 0-.7-.2-1-.4-.2-.3-.4-.7-.4-1.1Zm-1.8 13.3V6.2h-2.4v14.5h2.4Z"/></svg>