<?xml version="1.0" encoding="UTF-8"?><svg id="Layer_1" xmlns="http://www.w3.org/2000/svg" width="200" height="200" viewBox="0 0 200 200"><defs><style>.cls-1{fill:#fff;}.cls-2{fill:#e81c1c;}.cls-3{fill:#413ef1;}</style></defs><path d="M100.07,26.41c-6.3,0-12.67,1.66-12.67,4.82,0,.55,.45,1,1,1s1-.45,1-1c0-1,4.05-2.82,10.67-2.82s10.67,1.83,10.67,2.82v56.53c0,.55,.45,1,1,1s1-.45,1-1V31.24c0-3.17-6.37-4.82-12.67-4.82Z"/><polygon class="cls-1" points="24.8 92.84 96.16 85.16 96.16 39.87 24.8 47.56 1.84 72.67 24.8 92.84"/><polygon points="95.11 143.21 101.48 142.15 172.85 149.99 166.48 151.05 95.11 143.21"/><polygon class="cls-1" points="172.85 149.99 101.48 142.15 101.48 96.86 172.85 104.7 195.81 129.87 172.85 149.99"/><path d="M103.53,40.93c0-.49-.35-.91-.84-.99l-6.37-1.06s-.09,0-.13,0c-.05,0-.09-.02-.14-.01l-71.36,7.69c-.24,.03-.47,.14-.63,.32L1.1,72c-.18,.2-.27,.46-.26,.73s.14,.52,.34,.7l22.96,20.17c.18,.16,.42,.25,.66,.25,.04,0,.07,0,.11,0l.17-.02s.02,0,.03,.01l6.37,1.06c.05,0,.11,.01,.16,.01,.04,0,.07,0,.11,0l55.65-6.03v73.27c0,.55,.45,1,1,1s1-.45,1-1v-55.94c1.43-14.46,12.98-18.86,13.47-19.04h0c.11-.04,.21-.1,.3-.18,.01-.01,.02-.03,.03-.04h.01c.05-.05,.08-.1,.12-.16,.02-.03,.03-.05,.05-.08,.03-.05,.05-.1,.07-.16,0-.02,.02-.04,.02-.07,.02-.06,.03-.11,.04-.17,0-.02,.01-.04,.01-.06,0,0,0-.01,0-.02h0V40.93Zm-8.37,43.33l-70.03,7.54L3.26,72.6l22.02-24.09,69.88-7.53v43.28Zm6.37,.78l-4.37-.73V41.05l4.37,.73v43.26Z"/><path class="cls-3" d="M44.74,76.16c-2.36,0-4.2-1.33-5.2-3.75-.8,.49-1.6,.91-2.37,1.24-3.64,1.52-5.69,.64-6.77-.36-.4-.38-.43-1.01-.05-1.41,.38-.4,1.01-.43,1.41-.05,1.23,1.15,3.43,.48,4.63-.02,.85-.36,1.72-.83,2.56-1.38-.78-4.14,.39-9.56,2.79-11.8,1.22-1.14,2.68-1.39,4.09-.71,1.48,.72,2.28,2,2.23,3.61-.09,3.08-3.25,7.02-6.84,9.72,.04,.13,.09,.25,.14,.37,.69,1.71,1.84,2.58,3.44,2.54,7.59-.13,11.48-11.08,11.52-11.19,.17-.48,.66-.75,1.15-.65,.49,.1,.83,.56,.79,1.06-.12,1.46,.07,4.12,1.06,5.02,.2,.18,.54,.4,1.24,.28,2.82-.5,4.89-5.31,5.44-7.12,.14-.46,.59-.76,1.07-.7,.48,.06,.85,.45,.88,.93,.01,.14,.31,3.57,2.59,3.49,2.59-.07,3.99-3.87,4-3.91,.19-.52,.76-.79,1.28-.6,.52,.19,.79,.76,.61,1.28-.07,.21-1.87,5.13-5.84,5.24-1.9,.08-3.11-1.06-3.8-2.38-1.12,2.29-3.07,5.24-5.89,5.74-1.14,.2-2.16-.06-2.94-.77-.73-.66-1.16-1.64-1.41-2.64-1.99,3.67-5.83,8.82-11.73,8.92-.04,0-.07,0-.11,0Zm-.46-16.63c-.33,0-.72,.13-1.16,.55-1.61,1.5-2.7,5.55-2.34,9.01,2.93-2.39,5.24-5.52,5.3-7.62,.02-.83-.32-1.37-1.11-1.76-.2-.1-.43-.18-.69-.18Z"/><path class="cls-2" d="M156.39,134.57c-.46,0-.94-.06-1.45-.21-1.58-.44-2.81-1.51-3.71-2.96-1.18,.61-2.42,.94-3.69,.87-2.6-.13-4.65-1.01-6.08-2.62-.83-.93-1.34-1.98-1.64-2.96-1.65,2.35-4.46,4.49-8.47,3.52-5.7-1.38-6.71-7.17-6.45-10.03,.05-.55,.54-.95,1.09-.91,.55,.05,.96,.54,.91,1.09-.02,.28-.5,6.59,4.93,7.91,5.37,1.3,7.5-4.87,7.59-5.13,.16-.48,.65-.76,1.14-.67,.49,.1,.84,.54,.81,1.05,0,.02-.15,2.85,1.61,4.81,1.06,1.18,2.64,1.84,4.68,1.94,.92,.04,1.83-.2,2.72-.66-1.15-3.04-1.27-7.01-.43-10.56,1.11-4.7,3.61-7.27,6.53-6.71,2.44,.47,3.6,2.65,3.2,5.99-.48,3.99-3.18,9.21-6.77,11.99,.65,1.05,1.51,1.8,2.59,2.1,3.32,.92,4.7-3.57,4.75-3.76,.16-.53,.71-.83,1.24-.67,.53,.16,.83,.71,.68,1.24-.59,2-2.48,5.33-5.76,5.33Zm-.7-20.29c-1.9,0-3.23,2.75-3.82,5.24-.71,3.02-.67,6.39,.17,8.94,2.91-2.48,5.22-6.99,5.63-10.36,.19-1.55,.06-3.46-1.59-3.78-.13-.03-.26-.04-.39-.04Z"/><path class="cls-2" d="M153.8,66.77s1.61-1.99,2.67-1.99,2.53,2.13,2.53,2.13c0,0-.96,2.36-2.45,2.36-.93,0-1.53-.07-2.75-2.5Z"/><g><path d="M196.55,129.19l-22.96-25.17c-.16-.18-.39-.29-.63-.32l-21.27-2.34c10.97-6.43,10.73-18.41,10.5-29.07-.05-2.21-.09-4.3-.05-6.36,.1-4.92-1.63-8.81-4.76-10.68-2.18-1.31-4.77-1.35-6.93-.13-3.08,1.74-4.86,5.67-4.88,10.79-.01,3.09-1.25,4.11-3.91,5.44-.25-.01-.49-.03-.75-.02-5.77,.18-19.02,6.86-24.94,22.15-.2,.52,.06,1.09,.57,1.29,.12,.05,.24,.07,.36,.07,.4,0,.78-.24,.93-.64,5.52-14.24,17.99-20.72,23.14-20.88,2.21-.06,4.07,.96,5.2,2.91,1.56,2.7,1.92,7.73-1.79,13.75-.29,.47-.14,1.09,.33,1.38,.47,.29,1.09,.14,1.38-.33,3.49-5.66,4.18-11.72,1.82-15.8-.85-1.46-2.03-2.53-3.44-3.19,1.89-1.27,3.09-2.91,3.1-6.12,.02-4.38,1.43-7.68,3.86-9.06,1.55-.88,3.35-.84,4.93,.11,1.6,.96,2.75,2.72,3.34,4.96-.17-.17-.39-.29-.63-.29-.55,0-1,.54-1,1.2s.45,1.2,1,1.2c.41,0,.76-.3,.91-.72,.12,.82,.19,1.67,.17,2.58-.04,2.1,0,4.31,.05,6.45,.24,11.42,.49,23.22-12.14,28.63l-46.44-5.1s-.1,.01-.14,.01c-.04,0-.09-.01-.13,0l-6.37,1.06c-.48,.08-.84,.5-.84,.99v45.29h0s0,.02,0,.03c0,.13,.04,.26,.09,.37,.01,.03,.04,.05,.05,.08,.05,.09,.11,.17,.18,.24,.01,.01,.02,.03,.03,.04,.03,.03,.07,.04,.1,.06,.05,.03,.1,.06,.15,.09,.06,.03,.12,.04,.18,.05,.04,0,.07,.03,.11,.03l2.89,.32c2.76,1.92,12.85,9.49,12.85,17.61v17.37c0,.55,.45,1,1,1s1-.45,1-1v-33.35l53.62,5.89s.07,0,.11,0c.06,0,.11,0,.16-.01l6.37-1.06s.06-.03,.1-.04c.05-.01,.1-.03,.14-.05,.07-.03,.13-.07,.19-.11,.02-.01,.04-.02,.05-.03l22.96-20.12c.2-.18,.32-.43,.34-.7,.02-.27-.08-.53-.26-.73Zm-24.03,19.75l-70.04-7.7v-43.28l69.88,7.68,22.02,24.14-21.86,19.16Z"/><ellipse cx="152.94" cy="62.84" rx="1" ry="1.2"/></g></svg>